<?xml version="1.0" encoding="utf-8"?>
<!-- Generator: Adobe Illustrator 14.0.0, SVG Export Plug-In . SVG Version: 6.00 Build 43363)  -->
<!DOCTYPE svg PUBLIC "-//W3C//DTD SVG 1.1//EN" "http://www.w3.org/Graphics/SVG/1.1/DTD/svg11.dtd">
<svg version="1.1" id="图层_1" xmlns="http://www.w3.org/2000/svg" xmlns:xlink="http://www.w3.org/1999/xlink" x="0px" y="0px"
	 width="340.156px" height="85.039px" viewBox="0 0 340.156 85.039" enable-background="new 0 0 340.156 85.039"
	 xml:space="preserve">
<radialGradient id="SVGID_1_" cx="180.9355" cy="785.8496" r="24.9264" fx="197.8665" fy="767.5557" gradientTransform="matrix(0.9384 0.3456 -0.3365 0.9138 145.9031 -735.4486)" gradientUnits="userSpaceOnUse">
	<stop  offset="0" style="stop-color:#FFFEF2"/>
	<stop  offset="0.2727" style="stop-color:#F3982D"/>
	<stop  offset="0.3818" style="stop-color:#DE5411"/>
	<stop  offset="0.6" style="stop-color:#DD4D13"/>
	<stop  offset="0.8369" style="stop-color:#E60012"/>
</radialGradient>
<path fill="url(#SVGID_1_)" d="M52.831,40.024c0.08-0.006,0.158-0.013,0.236-0.02c-0.271-0.207-0.508-0.457-0.693-0.74
	c-0.422-0.637-0.602-1.434-0.438-2.24c0.027-0.139,0.066-0.274,0.113-0.406c0.004-0.012,0.008-0.022,0.012-0.034
	c0.049-0.134,0.109-0.266,0.182-0.394l0.014-0.027c0.094-0.164,0.174-0.337,0.24-0.514c0.063-0.17,0.115-0.348,0.152-0.527
	l0.004-0.021c0.199-0.979-0.02-1.949-0.531-2.726c-0.514-0.777-1.32-1.356-2.301-1.557l-0.002-0.001
	c-0.978-0.199-1.949,0.02-2.726,0.533c-0.771,0.51-1.349,1.309-1.554,2.277l-0.004,0.018c-0.016,0.084-0.024,0.143-0.03,0.183
	c-0.255,1.626,0.323,3.015,1.291,4.059c0.987,1.067,2.38,1.783,3.72,2.039c0.092,0.018,0.162,0.03,0.209,0.038
	C51.356,40.061,52.093,40.075,52.831,40.024 M42.179,46.992c-0.025-0.188-0.068-0.373-0.123-0.555
	c-0.057-0.183-0.127-0.357-0.211-0.529c-0.439-0.896-1.207-1.531-2.087-1.83c-0.884-0.301-1.879-0.268-2.774,0.174
	c-0.896,0.439-1.529,1.207-1.83,2.088c-0.302,0.881-0.269,1.873,0.17,2.77l0.002-0.002c0.024,0.054,0.055,0.105,0.086,0.164
	c0.793,1.441,2.099,2.188,3.502,2.42c1.437,0.242,2.976-0.043,4.191-0.655c0.059-0.029,0.121-0.063,0.188-0.103
	c0.611-0.338,1.259-0.826,1.849-1.371l0.03-0.024c-0.344,0.004-0.682-0.054-1.002-0.16c-0.723-0.246-1.352-0.771-1.715-1.506l0,0
	c-0.07-0.144-0.127-0.283-0.172-0.431c-0.047-0.146-0.08-0.297-0.104-0.444V46.992L42.179,46.992z M51.388,43.23l0.459-0.517
	c-0.225,0.072-0.455,0.135-0.686,0.191c-1.23,0.29-2.543,0.325-3.865,0.055c-0.376-0.076-0.74-0.176-1.094-0.295
	c0.024,0.039,0.047,0.076,0.069,0.113c0.474,0.785,0.814,1.608,1.027,2.449c0.146,0.563,0.229,1.133,0.262,1.705l0.058-0.037
	l0.021-0.017C48.888,46.049,50.142,44.633,51.388,43.23z M57.487,53.164c-1.379,0.361-5.746,0.68-6.951,0.412
	c1.77-1.211,3.982-1.73,5.068-4.09h0.002c0.008-0.019,0.018-0.033,0.025-0.051c0.369-0.603,0.619-1.105,0.828-1.529
	c0.563-1.137,0.869-1.754,2.252-2.26c0.561-0.205,1.191-0.236,1.773-0.101c0.518,0.121,1,0.373,1.369,0.748
	c0.377,0.386,0.633,0.896,0.686,1.521c0.049,0.582-0.08,1.263-0.461,2.021C61.333,51.334,59.493,52.506,57.487,53.164z
	 M43.462,55.406c-2.006,0.904-4.737,1.124-7.229,0.48c-2.182-0.56-4.188-1.777-5.394-3.767c-1.289-2.131-1.593-4.582-1.041-6.824
	c0.551-2.241,1.957-4.274,4.088-5.564c1.519-0.918,3.199-1.336,4.854-1.301c0.926,0.02,1.84,0.182,2.713,0.477
	c-0.399-0.639-0.721-1.326-0.951-2.049c-0.454-1.421-0.563-2.974-0.243-4.538c0.498-2.44,1.937-4.448,3.86-5.722
	c1.925-1.273,4.336-1.813,6.775-1.314c2.441,0.496,4.449,1.936,5.723,3.86c1.273,1.924,1.813,4.336,1.314,6.776
	c-0.178,0.869-0.473,1.684-0.867,2.426c-0.043,0.08-0.086,0.158-0.129,0.236c1.529-0.668,3.162-0.955,4.75-0.885
	c2.328,0.102,4.563,0.97,6.24,2.533h-0.002l0.016,0.014c0.701,0.703,1.234,1.488,1.617,2.322c0.889,1.93,0.963,4.11,0.461,6.16
	h-0.002c-0.498,2.034-1.57,3.944-2.979,5.35c-0.73,0.727-1.551,1.32-2.43,1.729c-1.389,0.815-3.131,1.313-4.945,1.631
	c-3.01,0.521-6.453,0.86-9.379-0.152c1.84-0.207,3.217-0.119,6.371-1.234c1.811-0.688,3.711-1.88,5.947-3.806
	c1.734-1.494,2.771-3.32,2.938-4.929c0.063-0.608,0.018-1.196-0.135-1.733c-0.148-0.529-0.4-1.013-0.752-1.416
	c-0.643-0.746-1.74-1.319-3.047-1.456c-3.234-0.336-4.779,1.327-6.936,3.652C51.476,49.814,47.749,53.469,43.462,55.406z"/>
<path fill="#D3D3D3" d="M232.822,28.908v-2.436h17.722v2.436H232.822z M230.951,35.564v-2.436h21.561v2.436h-11.156
	c-1.312,2.812-3.06,5.188-5.248,7.124c4.377,0,8.062-0.184,11.062-0.56c-0.372-1-0.872-2.064-1.5-3.188h3.188
	c1.375,2.312,2.345,4.72,2.908,7.22h-3.469c-0.064-0.564-0.188-1.064-0.376-1.5c-4.313,0.436-8.844,0.654-13.597,0.654h-1.871
	v-2.626c2.124-2.184,3.654-4.561,4.592-7.124H230.951z M215.598,33.128v2.248h3v-2.248H215.598z M215.598,37.439v2.344h3v-2.344
	H215.598z M215.598,41.848v2.437h3v-2.437H215.598z M223.753,33.128h-2.063v11.156h0.563c1.063,0.063,1.563-0.5,1.5-1.688V33.128z
	 M210.441,44.284h2.063V33.128h-2.063V44.284z M206.316,28.72v-2.436h21.561v2.436h-9.188c-0.186,0.813-0.404,1.532-0.656,2.156
	h8.908v11.908c0.063,2.376-1.125,3.563-3.564,3.563h-16.124V30.876h6.937c0.129-0.376,0.252-0.876,0.377-1.5
	c0.063-0.312,0.123-0.532,0.188-0.656H206.316z M187.215,31.816v1.312h10.5v-1.312H187.215z M187.215,36.316h9.469
	c0.752,0.064,1.096-0.312,1.031-1.124v-0.188h-10.5V36.316z M183.839,38.38v-8.628h6.468v-4.404h3.564v1.124h8.813v2.064h-8.813
	v1.216h7.313v5.44c0.063,2.188-0.969,3.248-3.093,3.188h-3.844v1.124h8.812v2.252h-3.844c0.624,1.372,1.876,2.344,3.752,2.904v1.968
	c-3.752-0.748-6.188-2.372-7.316-4.872h-1.402v5.248h-3.564v-5.248h-1.404c-1.252,2.561-3.688,4.188-7.311,4.872V44.66
	c1.871-0.561,3.123-1.532,3.747-2.904h-3.747v-2.252h8.715V38.38H183.839z M162.764,36.6v1.404h10.22V36.6H162.764z M162.764,39.972
	v1.408h10.22v-1.408H162.764z M157.048,29.1v-2.252h8.72v-1.404h4.124v1.404h8.625V29.1h-11.25c-1,0.748-2.124,1.468-3.376,2.156
	c2.44,0,4.124-0.032,5.064-0.096c1.124,0,2.216-0.06,3.28-0.188c-0.125-0.124-0.28-0.34-0.469-0.656
	c-0.252-0.248-0.437-0.436-0.563-0.56h3.096c1.062,1.124,2.032,2.5,2.904,4.124h-3.468l-0.28-0.844
	c-2.812,0.252-6.44,0.408-10.876,0.468h-3.188v-2.248c1.624-0.812,2.78-1.532,3.468-2.156H157.048z M159.296,46.912V34.536h17.156
	v9.376c0.124,2-0.845,2.936-2.904,2.813h-2.53V44.66h0.936c0.752,0.063,1.096-0.248,1.031-0.938v-0.375h-10.219v3.563
	L159.296,46.912L159.296,46.912z M139.35,31.348c0.188-0.188,0.468-0.564,0.844-1.128c0.252-0.436,0.468-0.748,0.656-0.936h-1.968
	v2.064H139.35z M147.505,30.315c-0.188,0.436-0.436,0.844-0.748,1.216h0.188c0.248,2.44,0.78,4.532,1.592,6.284
	c0.688-1.752,1.124-4.252,1.312-7.5H147.505z M143.474,34.064v-2.248c1.376-1.628,2.188-3.752,2.44-6.376h3.092
	c-0.188,0.936-0.376,1.812-0.56,2.624h5.624v2.251h-1.312c-0.064,4.437-0.94,7.904-2.628,10.404c0.94,1.376,2.156,2.629,3.656,3.752
	v2.437c-2.56-1.56-4.34-2.937-5.34-4.124c-1.064,1.125-2.908,2.5-5.532,4.124v-2.437c1.688-1.312,3.032-2.596,4.032-3.844
	c-1.188-1.876-2-4.252-2.44-7.124C144.13,33.688,143.786,33.875,143.474,34.064z M133.257,29.284v-2.252h2.436v-1.688h3.188v1.688
	h2.156v1.972c0.06-0.064,0.156-0.188,0.28-0.376c0.376-0.624,0.625-1.156,0.748-1.596h2.908c-0.812,1.688-1.624,3.128-2.436,4.316
	h0.56v2.344h-2.436c-0.624,0.564-1.28,1.124-1.968,1.688h4.028v2.156c-0.748,1.064-1.592,1.876-2.528,2.436
	c1.124-0.124,2.312-0.28,3.561-0.468v2.252c-0.249,0.06-0.656,0.124-1.216,0.188c-1.064,0.184-1.876,0.312-2.44,0.372v1.596
	c0.064,1.936-0.876,2.872-2.812,2.813h-2.812V44.66h1.312c0.752,0,1.092-0.376,1.032-1.124v-0.844
	c-1.312,0.124-2.78,0.188-4.408,0.188v-2.532c0.564,0,1.344-0.032,2.344-0.092c0.939,0,1.624,0,2.063,0v-0.844
	c1.125-0.624,1.876-1.252,2.249-1.876h-3.748c-0.188,0.124-0.5,0.28-0.936,0.468c-0.312,0.124-1,0.468-2.064,1.032v-2.252
	c2-1.124,3.564-2.156,4.688-3.092h-4.5v-2.344h3.188v-2.064H133.257z M113.403,28.348v1.404h10.592v-1.404H113.403z M113.403,33.128
	h9.372c0.876,0.064,1.284-0.312,1.22-1.124v-0.376h-10.592V33.128z M110.027,35.284v-9.092h17.344v5.904
	c0.124,2.252-0.936,3.312-3.188,3.188h-8.156c-0.188,0.44-0.408,0.844-0.656,1.22H128.5v7.124c0.06,2-1.064,2.968-3.376,2.908
	h-2.812v-2.063h1.408c0.872,0.063,1.28-0.377,1.216-1.313v-4.404h-1.313c-0.688,3.872-3.344,6.656-7.968,8.344v-2.344
	c2.624-1.376,4.156-3.376,4.592-6h-2.064c-1.312,3.872-4.56,6.561-9.748,8.061V44.66c3.124-1.372,5.22-3.344,6.28-5.904h-1.22
	c-1.372,1.188-3.188,2-5.436,2.436v-2.064c2.124-0.872,3.564-2.156,4.312-3.844H110.027z M98.893,31.816
	c0.312-0.624,0.5-1.436,0.563-2.436h1.688c-0.127,1-0.376,1.812-0.752,2.436H98.893z M94.581,31.816
	c-0.312-0.624-0.564-1.436-0.748-2.436h1.684c0,0.688,0.188,1.5,0.564,2.436H94.581z M86.145,42.88h0.56
	c0.564,0,0.844-0.252,0.844-0.752V29.284h-1.404V42.88z M101.237,38.472c-1.436-0.752-2.312-1.876-2.624-3.376v3.096h-2.252v-3.284
	c-0.312,1.564-1.188,2.752-2.624,3.564V36.88c0.688-0.816,1.092-1.72,1.22-2.72h-1.128v-1.876h2.532v-3.092h2.252v3.092h2.532v1.876
	h-1.128c0.128,1.06,0.532,1.968,1.22,2.72V38.472z M90.361,42.036V39.88h5.532v-1.312h3.188v1.312h5.624v2.156h-5.248
	c0.625,1.437,2.468,2.468,5.532,3.092v1.876c-3.628-0.5-6.128-1.531-7.5-3.092c-1.5,1.688-4.064,2.716-7.688,3.092v-1.876
	c3.06-0.562,4.968-1.592,5.716-3.092H90.361z M90.737,38.94V26.751h4.312c0.188-0.375,0.312-0.844,0.376-1.404h3.376
	c-0.064,0.248-0.156,0.56-0.284,0.936c-0.06,0.248-0.092,0.408-0.092,0.468h5.812V38.94h-2.624V28.816h-8.252V38.94H90.737z
	 M83.613,44.848V27.032h6.28v15.38c0,1.624-0.936,2.436-2.812,2.436H83.613z"/>
<path fill="#D3D3D3" d="M254.415,54.771c0,0.386,0.104,0.697,0.313,0.942c0.207,0.243,0.479,0.367,0.81,0.367
	c0.394,0,0.702-0.153,0.921-0.46c0.221-0.307,0.33-0.739,0.33-1.299c0-0.99-0.387-1.485-1.157-1.485
	c-0.358,0-0.649,0.138-0.877,0.41s-0.34,0.625-0.34,1.056V54.771L254.415,54.771z M254.439,56.51v3.137h-1.576V51.76h1.576v0.825
	h0.021c0.413-0.64,0.997-0.957,1.752-0.957c0.688,0,1.226,0.24,1.61,0.722c0.39,0.479,0.582,1.133,0.582,1.959
	c0,0.901-0.225,1.625-0.674,2.168s-1.037,0.815-1.768,0.815c-0.66,0-1.162-0.261-1.504-0.782H254.439z M246.971,54.465
	c0,1.077,0.438,1.617,1.317,1.617c0.843,0,1.265-0.557,1.265-1.662c0-1.053-0.425-1.582-1.275-1.582
	c-0.412,0-0.731,0.143-0.963,0.426C247.084,53.547,246.971,53.945,246.971,54.465z M245.373,54.484c0-0.891,0.268-1.588,0.798-2.096
	c0.533-0.508,1.249-0.762,2.146-0.762c0.869,0,1.56,0.25,2.07,0.749c0.512,0.5,0.768,1.172,0.768,2.015
	c0,0.885-0.262,1.59-0.786,2.113c-0.522,0.525-1.233,0.787-2.13,0.787c-0.877,0-1.575-0.252-2.092-0.755
	C245.631,56.035,245.373,55.352,245.373,54.484z M244.184,57.098c-0.238,0.129-0.598,0.194-1.08,0.194
	c-1.146,0-1.72-0.603-1.72-1.808v-2.549h-0.889V51.76h0.889v-1.187l1.568-0.45v1.637h1.229v1.178h-1.229v2.274
	c0,0.576,0.228,0.865,0.685,0.865c0.174,0,0.357-0.054,0.547-0.157V57.098z M239.813,57.16h-1.914l-1.797-2.672h-0.021v2.672h-1.576
	v-7.993h1.576v5.088h0.021l1.685-2.495h1.88l-2.002,2.549L239.813,57.16z M228.831,55.71c0.54,0.328,1.067,0.493,1.587,0.493
	c0.648,0,0.977-0.176,0.977-0.523c0-0.246-0.269-0.453-0.807-0.619c-0.67-0.209-1.131-0.439-1.382-0.694
	c-0.25-0.257-0.375-0.603-0.375-1.038c0-0.53,0.215-0.947,0.644-1.247c0.43-0.302,0.993-0.452,1.689-0.452
	c0.495,0,0.973,0.074,1.432,0.219v1.241c-0.42-0.248-0.884-0.371-1.388-0.371c-0.25,0-0.452,0.046-0.604,0.136
	c-0.153,0.088-0.23,0.207-0.23,0.354c0,0.247,0.229,0.448,0.686,0.6c0.488,0.164,0.855,0.313,1.101,0.445
	c0.247,0.133,0.435,0.309,0.563,0.525c0.127,0.22,0.192,0.473,0.192,0.758c0,0.557-0.224,0.99-0.669,1.297
	c-0.446,0.309-1.042,0.462-1.788,0.462c-0.585,0-1.127-0.094-1.625-0.278V55.71H228.831z M225.882,53.918
	c0-0.809-0.327-1.211-0.981-1.211c-0.271,0-0.51,0.111-0.719,0.331c-0.207,0.222-0.338,0.517-0.39,0.88H225.882L225.882,53.918z
	 M227.352,54.902h-3.555c0.055,0.838,0.561,1.256,1.514,1.256c0.596,0,1.121-0.145,1.576-0.438v1.157
	c-0.49,0.275-1.135,0.415-1.934,0.415c-0.857,0-1.525-0.242-2.003-0.728c-0.479-0.484-0.718-1.162-0.718-2.026
	c0-0.863,0.256-1.563,0.763-2.103c0.509-0.539,1.146-0.809,1.915-0.809c0.765,0,1.363,0.232,1.793,0.695
	c0.434,0.464,0.648,1.102,0.648,1.912V54.902L227.352,54.902z M215.813,50.915v4.927h0.881c0.766,0,1.365-0.229,1.802-0.684
	c0.437-0.457,0.653-1.073,0.653-1.852c0-0.752-0.229-1.339-0.684-1.761c-0.455-0.422-1.049-0.632-1.777-0.632L215.813,50.915
	L215.813,50.915z M214.201,57.16v-7.563h2.613c2.685,0,4.027,1.229,4.027,3.687c0,1.169-0.377,2.106-1.128,2.815
	c-0.752,0.707-1.722,1.062-2.909,1.062L214.201,57.16L214.201,57.16z M208.085,54.113c0-0.358-0.108-0.66-0.325-0.906
	c-0.217-0.245-0.488-0.369-0.818-0.369c-0.383,0-0.687,0.152-0.909,0.452c-0.224,0.302-0.335,0.724-0.335,1.267
	c0,0.475,0.107,0.846,0.322,1.116c0.215,0.272,0.498,0.409,0.854,0.409c0.358,0,0.649-0.139,0.875-0.415
	c0.226-0.278,0.337-0.637,0.337-1.08L208.085,54.113L208.085,54.113z M209.643,56.564c0,1.002-0.285,1.774-0.857,2.316
	c-0.569,0.542-1.393,0.813-2.469,0.813c-0.729,0-1.309-0.104-1.737-0.313v-1.349c0.56,0.327,1.125,0.487,1.694,0.487
	c0.563,0,1.004-0.148,1.322-0.451c0.315-0.299,0.475-0.719,0.475-1.252v-0.449h-0.023c-0.382,0.617-0.947,0.924-1.699,0.924
	c-0.681,0-1.226-0.242-1.634-0.727c-0.407-0.485-0.612-1.137-0.612-1.948c0-0.909,0.227-1.634,0.676-2.177
	c0.451-0.543,1.043-0.813,1.775-0.813c0.663,0,1.161,0.259,1.494,0.774h0.023V51.76h1.572V56.564z M202.479,57.16h-1.568v-3.014
	c0-0.873-0.313-1.31-0.941-1.31c-0.3,0-0.549,0.117-0.746,0.351c-0.199,0.231-0.299,0.529-0.299,0.891v3.082h-1.576v-5.4h1.576
	v0.858h0.021c0.393-0.66,0.973-0.99,1.736-0.99c1.197,0,1.799,0.742,1.799,2.228v3.305H202.479z M193.77,57.16v-5.4h1.57v5.4H193.77
	z M193.65,50.018c0-0.242,0.086-0.438,0.258-0.588c0.17-0.152,0.389-0.228,0.656-0.228c0.273,0,0.494,0.075,0.664,0.231
	c0.17,0.154,0.252,0.349,0.252,0.582c0,0.237-0.084,0.436-0.258,0.594c-0.172,0.158-0.392,0.236-0.658,0.236
	c-0.266,0-0.482-0.08-0.654-0.24C193.736,50.448,193.65,50.25,193.65,50.018z M191.846,57.16h-1.572v-3.077
	c0-0.83-0.303-1.245-0.908-1.245c-0.303,0-0.553,0.117-0.75,0.348c-0.196,0.231-0.295,0.531-0.295,0.897v3.077h-1.576v-7.993h1.576
	v3.403h0.021c0.413-0.629,0.97-0.942,1.671-0.942c1.223,0,1.834,0.738,1.834,2.217V57.16L191.846,57.16z M185.027,56.96
	c-0.377,0.222-0.914,0.332-1.61,0.332c-0.824,0-1.489-0.25-1.998-0.752c-0.507-0.502-0.762-1.151-0.762-1.948
	c0-0.918,0.272-1.642,0.821-2.17c0.547-0.529,1.274-0.794,2.187-0.794c0.614,0,1.071,0.084,1.367,0.254v1.353
	c-0.36-0.264-0.755-0.396-1.183-0.396c-0.48,0-0.867,0.146-1.158,0.44c-0.291,0.293-0.438,0.695-0.438,1.207
	c0,0.492,0.139,0.883,0.415,1.168s0.653,0.429,1.128,0.429c0.42,0,0.83-0.136,1.23-0.401V56.96L185.027,56.96z M176.521,54.714
	c-0.57,0.074-0.854,0.331-0.854,0.771c0,0.201,0.069,0.365,0.208,0.488s0.325,0.186,0.559,0.186c0.323,0,0.588-0.113,0.797-0.342
	c0.209-0.228,0.313-0.51,0.313-0.849v-0.387L176.521,54.714z M174.74,52.087c0.242-0.137,0.568-0.247,0.979-0.332
	c0.408-0.085,0.758-0.127,1.049-0.127c1.51,0,2.265,0.757,2.265,2.271v3.263h-1.498v-0.787h-0.021
	c-0.369,0.614-0.906,0.919-1.617,0.919c-0.512,0-0.92-0.146-1.229-0.438c-0.307-0.291-0.461-0.688-0.461-1.188
	c0-1.037,0.618-1.639,1.852-1.807l1.483-0.202c0-0.628-0.327-0.941-0.979-0.941c-0.646,0-1.252,0.195-1.821,0.587L174.74,52.087
	L174.74,52.087z M171.518,53.918c0-0.809-0.328-1.211-0.98-1.211c-0.271,0-0.51,0.111-0.718,0.331
	c-0.208,0.222-0.339,0.517-0.39,0.88H171.518L171.518,53.918z M172.986,54.902h-3.554c0.055,0.838,0.56,1.256,1.513,1.256
	c0.596,0,1.121-0.145,1.576-0.438v1.157c-0.49,0.275-1.135,0.415-1.934,0.415c-0.858,0-1.526-0.242-2.003-0.728
	c-0.479-0.484-0.717-1.162-0.717-2.026c0-0.863,0.255-1.563,0.762-2.103c0.508-0.539,1.147-0.809,1.915-0.809
	c0.766,0,1.363,0.232,1.794,0.695c0.433,0.464,0.647,1.102,0.647,1.912V54.902L172.986,54.902z M167.704,50.915h-2.159v6.245h-1.615
	v-6.245h-2.153v-1.317h5.927V50.915z M156.367,54.104c0-0.364-0.11-0.666-0.33-0.904c-0.22-0.24-0.493-0.36-0.821-0.36
	c-0.385,0-0.687,0.153-0.907,0.457c-0.22,0.306-0.33,0.718-0.33,1.238c0,0.495,0.107,0.877,0.318,1.146
	c0.212,0.269,0.504,0.403,0.874,0.403c0.349,0,0.635-0.142,0.86-0.425c0.225-0.284,0.337-0.652,0.337-1.104L156.367,54.104
	L156.367,54.104z M157.916,57.16h-1.573v-0.762h-0.023c-0.381,0.595-0.945,0.894-1.69,0.894c-0.687,0-1.233-0.242-1.638-0.728
	c-0.405-0.484-0.609-1.146-0.609-1.982c0-0.887,0.229-1.6,0.682-2.143c0.453-0.541,1.046-0.813,1.78-0.813
	c0.704,0,1.195,0.254,1.475,0.762h0.023v-3.223h1.573V57.16L157.916,57.16z M150.678,57.16h-1.566v-0.825h-0.025
	c-0.403,0.64-0.955,0.957-1.655,0.957c-1.257,0-1.885-0.759-1.885-2.274V51.76h1.577v3.11c0,0.807,0.317,1.212,0.949,1.212
	c0.315,0,0.566-0.112,0.756-0.334c0.188-0.223,0.284-0.52,0.284-0.898v-3.09h1.566L150.678,57.16L150.678,57.16z M139.736,54.465
	c0,1.077,0.44,1.617,1.318,1.617c0.843,0,1.265-0.557,1.265-1.662c0-1.053-0.425-1.582-1.275-1.582
	c-0.414,0-0.733,0.143-0.964,0.426C139.851,53.547,139.736,53.945,139.736,54.465z M138.139,54.484c0-0.891,0.267-1.588,0.798-2.096
	c0.533-0.508,1.249-0.762,2.147-0.762c0.868,0,1.558,0.25,2.07,0.749c0.512,0.5,0.767,1.172,0.767,2.015
	c0,0.885-0.262,1.59-0.787,2.113c-0.523,0.525-1.233,0.787-2.128,0.787c-0.878,0-1.577-0.252-2.091-0.755
	C138.397,56.035,138.139,55.352,138.139,54.484z M134.884,57.16v-7.993h1.571v7.993H134.884z M133.131,56.887
	c-0.55,0.271-1.268,0.405-2.153,0.405c-1.14,0-2.043-0.34-2.713-1.022c-0.668-0.683-1.003-1.59-1.003-2.728
	c0-1.194,0.374-2.172,1.122-2.933c0.747-0.76,1.71-1.141,2.892-1.141c0.74,0,1.358,0.096,1.856,0.288v1.558
	c-0.512-0.301-1.091-0.448-1.738-0.448c-0.74,0-1.33,0.235-1.773,0.707c-0.441,0.474-0.663,1.09-0.663,1.852
	c0,0.742,0.21,1.339,0.63,1.792c0.42,0.452,0.988,0.678,1.703,0.678c0.675,0,1.289-0.16,1.842-0.486v1.479H133.131z M123.908,51.76
	l-2.227,5.885c-0.519,1.365-1.292,2.051-2.324,2.051c-0.408,0-0.723-0.043-0.948-0.129v-1.262c0.211,0.119,0.444,0.18,0.698,0.18
	c0.43,0,0.733-0.209,0.909-0.625l0.298-0.709l-2.183-5.391h1.748l1.055,3.385c0.065,0.205,0.112,0.435,0.142,0.688h0.028
	c0.023-0.172,0.077-0.398,0.162-0.68l1.079-3.394L123.908,51.76L123.908,51.76z M113.186,55.71c0.54,0.328,1.068,0.493,1.587,0.493
	c0.65,0,0.977-0.176,0.977-0.523c0-0.246-0.268-0.453-0.807-0.619c-0.67-0.209-1.13-0.439-1.382-0.694
	c-0.25-0.257-0.375-0.603-0.375-1.038c0-0.53,0.215-0.947,0.644-1.247c0.43-0.302,0.993-0.452,1.69-0.452
	c0.495,0,0.972,0.074,1.432,0.219v1.241c-0.42-0.248-0.884-0.371-1.389-0.371c-0.25,0-0.452,0.046-0.605,0.136
	c-0.153,0.088-0.23,0.207-0.23,0.354c0,0.247,0.229,0.448,0.685,0.6c0.488,0.164,0.855,0.313,1.1,0.445
	c0.247,0.133,0.434,0.309,0.562,0.525c0.128,0.22,0.193,0.473,0.193,0.758c0,0.557-0.223,0.99-0.668,1.297
	c-0.447,0.309-1.042,0.462-1.788,0.462c-0.585,0-1.127-0.094-1.625-0.278L113.186,55.71L113.186,55.71z M108.869,54.714
	c-0.57,0.074-0.855,0.331-0.855,0.771c0,0.201,0.07,0.365,0.208,0.488c0.138,0.123,0.325,0.186,0.558,0.186
	c0.323,0,0.588-0.113,0.796-0.342c0.208-0.228,0.312-0.51,0.312-0.849v-0.387L108.869,54.714z M107.087,52.087
	c0.243-0.137,0.57-0.247,0.979-0.332c0.408-0.085,0.758-0.127,1.048-0.127c1.51,0,2.265,0.757,2.265,2.271v3.263h-1.498v-0.787
	h-0.021c-0.368,0.614-0.906,0.919-1.616,0.919c-0.512,0-0.92-0.146-1.229-0.438c-0.307-0.291-0.461-0.688-0.461-1.188
	c0-1.037,0.618-1.639,1.852-1.807l1.483-0.202c0-0.628-0.326-0.941-0.979-0.941c-0.645,0-1.252,0.195-1.822,0.587L107.087,52.087
	L107.087,52.087z M103.864,53.918c0-0.809-0.328-1.211-0.981-1.211c-0.27,0-0.51,0.111-0.718,0.331
	c-0.208,0.222-0.338,0.517-0.39,0.88H103.864L103.864,53.918z M105.334,54.902h-3.555c0.055,0.838,0.56,1.256,1.513,1.256
	c0.595,0,1.122-0.145,1.577-0.438v1.157c-0.492,0.275-1.135,0.415-1.934,0.415c-0.858,0-1.527-0.242-2.003-0.728
	c-0.479-0.484-0.717-1.162-0.717-2.026c0-0.863,0.255-1.563,0.761-2.103c0.509-0.539,1.147-0.809,1.915-0.809
	c0.765,0,1.364,0.232,1.794,0.695c0.432,0.464,0.648,1.102,0.648,1.912L105.334,54.902L105.334,54.902z M98.499,54.82h-2.887v-1.112
	h2.887V54.82z M89.905,55.71c0.54,0.328,1.068,0.493,1.587,0.493c0.65,0,0.977-0.176,0.977-0.523c0-0.246-0.268-0.453-0.807-0.619
	c-0.67-0.209-1.13-0.439-1.382-0.694c-0.25-0.257-0.375-0.603-0.375-1.038c0-0.53,0.215-0.947,0.644-1.247
	c0.43-0.302,0.993-0.452,1.69-0.452c0.495,0,0.972,0.074,1.432,0.219v1.241c-0.42-0.248-0.883-0.371-1.388-0.371
	c-0.25,0-0.452,0.046-0.605,0.136c-0.153,0.088-0.23,0.207-0.23,0.354c0,0.247,0.229,0.448,0.686,0.6
	c0.488,0.164,0.855,0.313,1.1,0.445c0.247,0.133,0.434,0.309,0.562,0.525c0.128,0.22,0.193,0.473,0.193,0.758
	c0,0.557-0.224,0.99-0.668,1.297c-0.447,0.309-1.042,0.462-1.789,0.462c-0.585,0-1.126-0.094-1.625-0.278V55.71H89.905z
	 M82.645,53.391c0,0.736,0.176,1.338,0.531,1.805c0.355,0.468,0.842,0.699,1.46,0.699c0.631,0,1.123-0.223,1.475-0.67
	s0.527-1.05,0.527-1.805c0-0.788-0.17-1.41-0.512-1.868c-0.342-0.457-0.823-0.686-1.445-0.686c-0.632,0-1.13,0.233-1.492,0.702
	C82.826,52.038,82.645,52.646,82.645,53.391z M80.949,53.479c0-1.186,0.347-2.149,1.039-2.894c0.691-0.743,1.605-1.115,2.742-1.115
	c1.08,0,1.95,0.36,2.61,1.078c0.658,0.722,0.988,1.646,0.988,2.772c0,1.18-0.343,2.137-1.028,2.869
	c-0.685,0.734-1.582,1.103-2.691,1.103c-1.085,0-1.965-0.354-2.642-1.065C81.288,55.514,80.949,54.6,80.949,53.479z"/>
<path fill="#D3D3D3" d="M300.293,37.719l0.834-0.493c0.537,0.665,0.998,1.349,1.381,2.049l-0.902,0.548
	C301.277,39.184,300.84,38.484,300.293,37.719 M299.172,39.947h4.689v0.887h-4.689V39.947z M299.352,42.094l0.928-0.206
	c0.301,1.301,0.604,2.903,0.904,4.797l-0.943,0.246C299.992,45.107,299.695,43.496,299.352,42.094z M303.396,41.9
	c-0.174,1.346-0.498,3.237-0.971,5.674c0.469-0.1,0.902-0.2,1.299-0.301c-0.008,0.356-0.004,0.68,0.014,0.971
	c-1.031,0.257-2.533,0.583-4.512,0.984l-0.205-1.023c0.916-0.152,1.75-0.299,2.502-0.446c0.447-2.739,0.748-4.75,0.902-6.036
	L303.396,41.9z M310.654,41.506v-0.425h-6.178v-3.075h0.957v2.228h2.119v-3.091h0.982v3.091h2.119v-2.228h0.959v3.5H310.654z
	 M303.779,42.393h8.846v0.889h-4.102l-0.377,1.491h3.836v4.537c0,0.785-0.348,1.176-1.041,1.176c-0.234,0-0.568-0.004-0.996-0.014
	c-0.064-0.373-0.156-0.709-0.273-1.011c0.311,0.026,0.625,0.04,0.943,0.04c0.273,0,0.41-0.141,0.41-0.423v-3.46h-1.408v4.294h-0.918
	v-4.294h-1.354v4.212h-0.914v-4.212h-1.367v4.99h-0.957v-5.838h3.047l0.316-1.49h-3.691V42.393z M286.968,40.178v3.377h8.614v-3.377
	H286.968z M289.964,37.663l0.983-0.588c0.438,0.521,0.871,1.085,1.299,1.696l-0.67,0.422h5.102v6.058h-1.096v-0.712h-8.633
	c-0.124,2.625-0.801,4.723-2.03,6.291c-0.247-0.303-0.511-0.604-0.793-0.903c1.166-1.421,1.75-3.554,1.75-6.397v-4.335h5.215
	C290.759,38.685,290.382,38.173,289.964,37.663z M279.07,41.847h-5.229c0.616,0.73,1.424,1.322,2.428,1.785
	C277.432,43.135,278.365,42.54,279.07,41.847z M279.646,47.164h-6.892v2.025h6.892V47.164z M270.104,38.838h5.9
	c-0.248-0.377-0.547-0.779-0.896-1.204l0.93-0.588c0.365,0.42,0.744,0.884,1.137,1.395l-0.631,0.396h5.785v2.558h-1.014v-1.654
	h-10.199v1.641h-1.012V38.838L270.104,38.838z M271.745,46.289h8.913v4.35h-1.014v-0.574h-6.891v0.574h-1.01L271.745,46.289
	L271.745,46.289z M273.85,39.795l1,0.424c-0.211,0.259-0.42,0.511-0.631,0.751h6.303v0.861c-0.756,0.88-1.76,1.639-3.008,2.276
	c1.514,0.471,3.359,0.707,5.536,0.718c-0.245,0.356-0.474,0.726-0.684,1.108c-2.438-0.188-4.462-0.613-6.068-1.278
	c-1.771,0.711-3.935,1.229-6.493,1.551c-0.156-0.336-0.349-0.664-0.576-0.983c2.303-0.23,4.258-0.613,5.865-1.147
	c-0.875-0.502-1.584-1.1-2.125-1.79c-0.685,0.655-1.395,1.242-2.127,1.762c-0.199-0.234-0.438-0.482-0.711-0.736
	C271.745,42.206,272.984,41.034,273.85,39.795z"/>
</svg>
